HIERARCHY
ROOT Hips
{
  OFFSET -32.5998 29.0326 120.673
  CHANNELS 6 Xposition Yposition Zposition Zrotation Xrotation Yrotation
  JOINT LeftUpLeg
  {
    OFFSET 8.64259 1.95398 -2.38835
    CHANNELS 3 Zrotation Xrotation Yrotation
    JOINT LeftLeg
    {
      OFFSET 43.7702 0 0
      CHANNELS 3 Zrotation Xrotation Yrotation
      JOINT LeftFoot
      {
        OFFSET 40.6238 0 0
        CHANNELS 3 Zrotation Xrotation Yrotation
        JOINT LeftToeBase
        {
          OFFSET 12.7242 0 0
          CHANNELS 3 Zrotation Xrotation Yrotation
          End Site
          {
            OFFSET 0 0 0
          }
        }
      }
    }
  }
  JOINT RightUpLeg
  {
    OFFSET -8.2249 1.95398 -2.59336
    CHANNELS 3 Zrotation Xrotation Yrotation
    JOINT RightLeg
    {
      OFFSET 43.5653 0 0
      CHANNELS 3 Zrotation Xrotation Yrotation
      JOINT RightFoot
      {
        OFFSET 40.6238 0 0
        CHANNELS 3 Zrotation Xrotation Yrotation
        JOINT RightToeBase
        {
          OFFSET 12.7242 0 0
          CHANNELS 3 Zrotation Xrotation Yrotation
          End Site
          {
            OFFSET 0 0 0
          }
        }
      }
    }
  }
  JOINT Spine
  {
    OFFSET 0.165834 0.87714 6.61349
    CHANNELS 3 Zrotation Xrotation Yrotation
    JOINT Spine1
    {
      OFFSET 7.38963 1.71661e-005 0
      CHANNELS 3 Zrotation Xrotation Yrotation
      JOINT Spine2
      {
        OFFSET 11.9445 1.14441e-005 0
        CHANNELS 3 Zrotation Xrotation Yrotation
        JOINT Spine3
        {
          OFFSET 14.7254 4.19617e-005 0
          CHANNELS 3 Zrotation Xrotation Yrotation
          JOINT Spine4
          {
            OFFSET 10.9679 0 0
            CHANNELS 3 Zrotation Xrotation Yrotation
            JOINT RightShoulder
            {
              OFFSET 2.46616 -1.6653 3.69651
              CHANNELS 3 Zrotation Xrotation Yrotation
              JOINT RightArm
              {
                OFFSET 13.0012 0 0
                CHANNELS 3 Zrotation Xrotation Yrotation
                JOINT RightForeArm
                {
                  OFFSET 28.7848 1.62311e-005 0
                  CHANNELS 3 Zrotation Xrotation Yrotation
                  JOINT RightHand
                  {
                    OFFSET 26.5688 1.62095e-005 0
                    CHANNELS 3 Zrotation Xrotation Yrotation
                    End Site
                    {
                      OFFSET 0 0 0
                    }
                  }
                }
              }
            }
            JOINT LeftShoulder
            {
              OFFSET 2.38034 -1.29275 -3.7523
              CHANNELS 3 Zrotation Xrotation Yrotation
              JOINT LeftArm
              {
                OFFSET 16.3182 6.07031e-005 0
                CHANNELS 3 Zrotation Xrotation Yrotation
                JOINT LeftForeArm
                {
                  OFFSET 27.0901 0 0
                  CHANNELS 3 Zrotation Xrotation Yrotation
                  JOINT LeftHand
                  {
                    OFFSET 24.5451 1.51738e-005 0
                    CHANNELS 3 Zrotation Xrotation Yrotation
                    End Site
                    {
                      OFFSET 0 0 0
                    }
                  }
                }
              }
            }
            JOINT Neck
            {
              OFFSET 5.0226 -0.0266342 0
              CHANNELS 3 Zrotation Xrotation Yrotation
              JOINT Head
              {
                OFFSET 6.69364 2.86102e-005 0
                CHANNELS 3 Zrotation Xrotation Yrotation
                End Site
                {
                  OFFSET 0 0 0
                }
              }
            }
          }
        }
      }
    }
  }
}
MOTION
Frames:	6
Frame Time:	0.0416667
38.1813 95.6088 -323.489 -147.398 -84.0421 -144.217 -170.161 -21.1431 91.4843 -14.7177 13.4946 -0.6896 86.9821 16.1419 -1.38766 23.6824 -6.01963 8.14694 178.806 20.5852 98.5181 -7.05873 -17.4745 2.49784 50.5576 7.03991 -2.4207 57.6955 -13.0119 -8.82963 -0.635865 7.98229 -90.2336 10.9077 -1.37395 -0.334959 -0.76251 -1.38736 -0.27416 -23.3021 -1.20976 -0.732454 -3.28944 -1.20976 -0.732457 89.9304 -31.9926 -106.152 43.1002 -13.5058 4.98818 -13.0127 -17.7215 -20.9329 -8.01055 0.0359949 -6.0733 -89.0261 -46.2847 79.4191 -17.6702 6.85186 -37.1617 18.636 7.52071 -28.5658 0.150499 -0.0758415 -3.7037 7.54062 0.470384 -11.4127 -1.50431 2.83649 2.39762 
37.8232 96.047 -312.395 -159.878 -83.9394 -155.227 -167.838 -26.5748 94.9429 -14.2125 15.3979 0.116538 75.2154 10.7423 -0.258243 35.8674 -0.233572 8.96986 179.387 24.2307 101.198 -29.4071 -8.77147 0.750136 61.7727 1.91744 -1.54075 22.8168 -0.0323229 10.1131 -0.750742 7.87646 -90.6022 11.1114 -1.77382 -1.02688 -0.558648 -1.81729 -0.947806 -23.097 -1.38323 -1.51252 -3.08431 -1.38322 -1.51251 90.5524 -31.1739 -105.24 44.2081 -13.3598 5.14877 -10.1853 -18.2944 -14.9171 -6.82792 0.000295143 -5.61256 -89.2272 -48.6553 79.6096 -17.5451 14.886 -33.085 14.9161 7.32344 -20.4439 -1.06274 -0.0849473 -4.2098 8.21797 1.07632 -8.00475 -2.97843 2.74482 1.38947 
37.4586 97.0222 -301.73 -169.717 -82.0147 -163.921 -166.324 -12.7834 100.445 -44.5161 23.3014 1.0015 59.1417 -0.846257 -0.722716 27.0906 -2.06146 3.38842 178.39 18.1379 102.728 -36.3507 -7.48776 1.47081 68.2645 -2.66618 -1.77298 18.9146 1.65644 8.34081 -0.60537 7.92195 -90.8303 11.018 -1.58987 -1.5011 -0.652791 -1.65439 -1.42968 -23.185 -1.06531 -1.90943 -3.17235 -1.0653 -1.90943 90.8039 -30.3753 -105.027 44.2354 -12.619 4.3377 -11.8693 -18.318 -17.4688 -5.78311 0.0378952 -6.24687 -89.2736 -48.2557 79.4555 -18.2335 26.7526 -29.6793 6.70782 8.0697 -3.04864 -1.4537 -0.0577027 -3.16856 7.17655 0.70645 -6.52647 -4.11437 1.99671 1.63629 
37.0532 98.6704 -293.673 -177.361 -81.7695 -171.575 -168.697 5.3695 100.022 -65.3541 20.1242 2.07308 61.798 0.431799 2.4583 10.6599 -9.48348 2.43463 178.449 9.60076 102.415 -31.8207 -8.38456 1.43485 70.5111 -5.19748 -2.78318 21.866 0.969962 6.97449 -0.282213 7.98755 -90.8141 10.8879 -0.938139 -1.53051 -0.783554 -1.00458 -1.48775 -23.3125 -0.434862 -1.74163 -3.29984 -0.434872 -1.74165 90.7382 -30.0687 -105.268 41.4015 -14.0896 -1.45508 -12.9076 -16.8721 -21.0789 -11.1366 -0.211821 -3.39582 -89.2827 -49.8235 79.7642 -20.5395 28.5098 -20.0714 5.51817 7.30345 -1.12127 -2.51754 -0.0849051 -2.9462 6.70737 -0.393387 -5.55451 -3.39085 0.709136 1.12973 
37.3624 100.365 -286.044 -165.685 -81.5418 -163.616 -171.301 16.3973 93.3036 -60.8792 7.34907 1.00116 70.2567 5.67224 3.34382 8.66951 -12.3449 5.16938 177.011 0.756074 98.1953 -25.7056 -12.5787 0.0864757 71.9188 -6.54192 -2.96822 23.4335 0.307122 7.16505 0.383166 7.96793 -90.2826 10.9395 0.632129 -0.621992 -0.731449 0.604145 -0.649225 -23.2673 0.789832 -0.403263 -3.2546 0.789836 -0.403264 90.4736 -29.5202 -105.998 38.3235 -14.7545 -7.80735 -15.4826 -18.3435 -25.6792 -14.0507 -0.624973 -0.0190226 -88.5253 -49.6673 80.8724 -23.7037 25.487 -5.45948 9.37847 2.45471 -13.6651 -3.26743 -0.10855 -2.06138 3.71946 -1.47106 -3.79038 -1.87864 -0.801935 -0.311321 
38.2342 100.424 -278.191 -146.528 -81.9078 -147.773 -173.458 21.9164 87.9806 -38.6993 0.648979 -1.15068 67.6748 4.15749 -0.897368 10.8467 -9.81412 3.11503 174.055 -3.86612 93.3409 -23.8522 -19.2424 -0.563457 75.0746 -8.9481 -4.31316 23.0485 0.681222 6.40511 0.980376 7.89288 -89.8923 11.0874 2.00158 0.0218472 -0.581965 2.0006 -0.066306 -23.1287 1.90243 0.622614 -3.11605 1.90243 0.622615 89.9912 -27.539 -107.754 34.3522 -16.4196 -13.6205 -18.7317 -18.1604 -31.5368 -11.85 -0.484695 -0.477885 -87.2138 -49.6132 82.8397 -23.8794 23.1605 2.7575 9.3618 -2.46625 -19.8393 -3.61197 -0.102351 -3.32472 3.2472 -1.39324 1.49645 -2.05654 -1.65722 -3.06692 
